<svg width="47" height="41" viewBox="0 0 47 41" fill="none" xmlns="http://www.w3.org/2000/svg">
<g opacity="0.7">
<path d="M32.8 9.43914V21.3991C32.8 21.7406 32.7327 22.0786 32.602 22.3941C32.4714 22.7095 32.2799 22.9962 32.0384 23.2376C31.797 23.479 31.5104 23.6705 31.1949 23.8012C30.8795 23.9319 30.5414 23.9991 30.2 23.9991H14.6C13.9104 23.9991 13.2491 23.7252 12.7615 23.2376C12.2739 22.75 12 22.0887 12 21.3991V5.79915C12 5.10959 12.2739 4.44827 12.7615 3.96068C13.2491 3.47308 13.9104 3.19916 14.6 3.19916H25.4862" stroke="#1C2121" stroke-width="2.08" stroke-linecap="round" stroke-linejoin="round"/>
<path d="M35.3761 0.341268C35.2811 0.236905 35.166 0.152883 35.0376 0.0942788C34.9092 0.0356747 34.7703 0.00370574 34.6292 0.000303475C34.4882 -0.00309879 34.3479 0.0221363 34.2168 0.0744841C34.0858 0.126832 33.9667 0.205205 33.8668 0.304868L33.0628 1.10502C32.9653 1.20253 32.9106 1.33474 32.9106 1.47259C32.9106 1.61044 32.9653 1.74266 33.0628 1.84016L33.7999 2.57596C33.8482 2.62451 33.9056 2.66303 33.9689 2.68931C34.0321 2.71559 34.0999 2.72912 34.1684 2.72912C34.2369 2.72912 34.3047 2.71559 34.368 2.68931C34.4312 2.66303 34.4886 2.62451 34.537 2.57596L35.3209 1.79596C35.7174 1.40012 35.7544 0.755317 35.3761 0.341268Z" fill="black"/>
<path d="M31.4372 2.73003L19.7034 14.443C19.6322 14.5139 19.5805 14.6018 19.5532 14.6984L19.0105 16.315C18.9975 16.3589 18.9966 16.4054 19.0078 16.4498C19.0191 16.4941 19.0421 16.5346 19.0744 16.5669C19.1068 16.5993 19.1473 16.6223 19.1916 16.6336C19.236 16.6448 19.2825 16.6439 19.3264 16.6309L20.9416 16.0881C21.0382 16.0608 21.1262 16.0091 21.1971 15.938L32.91 4.20292C33.0184 4.0934 33.0792 3.94555 33.0792 3.79147C33.0792 3.6374 33.0184 3.48955 32.91 3.38002L32.2633 2.73003C32.1536 2.62067 32.0051 2.55927 31.8502 2.55927C31.6954 2.55927 31.5468 2.62067 31.4372 2.73003Z" fill="black"/>
</g>
<path opacity="0.7" d="M3.89599 38.0712C3.29097 38.0712 2.76305 37.9407 2.31225 37.6797C1.86738 37.4187 1.52334 37.048 1.28015 36.5675C1.04288 36.0811 0.924251 35.5117 0.924251 34.8592C0.924251 34.2067 1.04288 33.6403 1.28015 33.1598C1.52334 32.6734 1.86738 32.3027 2.31225 32.0476C2.76305 31.7866 3.29097 31.6561 3.89599 31.6561C4.32307 31.6561 4.72049 31.7243 5.08825 31.8608C5.45601 31.9913 5.76742 32.1811 6.02248 32.4302L5.70217 33.1064C5.41152 32.8632 5.12087 32.6882 4.83023 32.5815C4.54551 32.4747 4.23706 32.4213 3.90489 32.4213C3.25241 32.4213 2.74823 32.6319 2.39233 33.053C2.04236 33.4742 1.86738 34.0762 1.86738 34.8592C1.86738 35.6422 2.04236 36.2472 2.39233 36.6743C2.74823 37.0954 3.25241 37.306 3.90489 37.306C4.23706 37.306 4.54551 37.2526 4.83023 37.1458C5.12087 37.0391 5.41152 36.8641 5.70217 36.6209L6.02248 37.2971C5.76742 37.5462 5.45601 37.739 5.08825 37.8754C4.72049 38.0059 4.32307 38.0712 3.89599 38.0712ZM9.48143 34.3076L8.93869 34.3609C8.51161 34.4025 8.20316 34.533 8.01335 34.7524C7.82947 34.9719 7.73753 35.2507 7.73753 35.5888V38H6.83889V33.6581H7.71084V34.4143C7.94217 33.9042 8.41374 33.6225 9.12553 33.5691L9.41915 33.5513L9.48143 34.3076ZM13.5159 35.9803H10.4463C10.5116 36.8997 10.9683 37.3594 11.8165 37.3594C12.3148 37.3594 12.7656 37.1963 13.1689 36.87L13.4448 37.5017C13.2431 37.6738 12.9939 37.8102 12.6974 37.911C12.4008 38.0119 12.0983 38.0623 11.7898 38.0623C11.0958 38.0623 10.5472 37.8636 10.1438 37.4662C9.74638 37.0687 9.54767 36.5201 9.54767 35.8201C9.54767 35.3753 9.63368 34.9808 9.8057 34.6368C9.98365 34.2927 10.2298 34.0258 10.5442 33.836C10.8645 33.6462 11.2263 33.5513 11.6297 33.5513C12.2169 33.5513 12.6766 33.7411 13.0088 34.1207C13.3469 34.5003 13.5159 35.0253 13.5159 35.6956V35.9803ZM11.6475 34.2097C11.3034 34.2097 11.0276 34.3194 10.82 34.5389C10.6183 34.7524 10.4967 35.0609 10.4552 35.4642H12.7419C12.7241 35.0609 12.6203 34.7524 12.4304 34.5389C12.2466 34.3194 11.9856 34.2097 11.6475 34.2097ZM16.1077 33.5513C16.689 33.5513 17.1191 33.6966 17.3979 33.9873C17.6826 34.2779 17.8249 34.7198 17.8249 35.313V38H16.9619V37.2793C16.8492 37.5344 16.6801 37.7301 16.4547 37.8665C16.2353 37.997 15.9772 38.0623 15.6806 38.0623C15.3959 38.0623 15.1349 38.0059 14.8977 37.8932C14.6604 37.7746 14.4736 37.6115 14.3371 37.4039C14.2066 37.1963 14.1414 36.9649 14.1414 36.7099C14.1414 36.3955 14.2215 36.1493 14.3816 35.9714C14.5477 35.7875 14.8176 35.657 15.1913 35.5799C15.5709 35.5028 16.0899 35.4642 16.7483 35.4642H16.953V35.2062C16.953 34.874 16.8818 34.6338 16.7394 34.4855C16.603 34.3372 16.3776 34.2631 16.0632 34.2631C15.5709 34.2631 15.0786 34.4143 14.5863 34.7168L14.3193 34.0851C14.5507 33.925 14.8295 33.7974 15.1557 33.7025C15.4879 33.6017 15.8052 33.5513 16.1077 33.5513ZM15.8408 37.395C16.167 37.395 16.434 37.2852 16.6416 37.0658C16.8492 36.8404 16.953 36.5527 16.953 36.2027V35.9714H16.7928C16.3302 35.9714 15.9743 35.9921 15.7251 36.0337C15.476 36.0752 15.2981 36.1464 15.1913 36.2472C15.0845 36.3421 15.0311 36.4815 15.0311 36.6654C15.0311 36.873 15.1053 37.048 15.2536 37.1903C15.4078 37.3268 15.6035 37.395 15.8408 37.395ZM20.8959 37.3683C21.0324 37.3683 21.1658 37.3594 21.2963 37.3416L21.2518 38.0267C21.1035 38.0504 20.9493 38.0623 20.7892 38.0623C20.2257 38.0623 19.8045 37.9259 19.5257 37.653C19.2529 37.3742 19.1164 36.9738 19.1164 36.4518V34.3521H18.2712V33.6581H19.1164V32.3501H20.0151V33.6581H21.2073V34.3521H20.0151V36.4163C20.0151 37.0509 20.3087 37.3683 20.8959 37.3683ZM25.4829 35.9803H22.4133C22.4785 36.8997 22.9353 37.3594 23.7835 37.3594C24.2818 37.3594 24.7326 37.1963 25.1359 36.87L25.4117 37.5017C25.2101 37.6738 24.9609 37.8102 24.6643 37.911C24.3678 38.0119 24.0653 38.0623 23.7568 38.0623C23.0628 38.0623 22.5141 37.8636 22.1108 37.4662C21.7134 37.0687 21.5147 36.5201 21.5147 35.8201C21.5147 35.3753 21.6007 34.9808 21.7727 34.6368C21.9506 34.2927 22.1968 34.0258 22.5112 33.836C22.8315 33.6462 23.1933 33.5513 23.5967 33.5513C24.1839 33.5513 24.6436 33.7411 24.9758 34.1207C25.3139 34.5003 25.4829 35.0253 25.4829 35.6956V35.9803ZM23.6145 34.2097C23.2704 34.2097 22.9946 34.3194 22.787 34.5389C22.5853 34.7524 22.4637 35.0609 22.4222 35.4642H24.7088C24.691 35.0609 24.5872 34.7524 24.3974 34.5389C24.2135 34.3194 23.9526 34.2097 23.6145 34.2097ZM33.6505 31.7273V38H32.9476L29.3619 33.2666V38H28.4989V31.7273H29.1929L32.7874 36.4696V31.7273H33.6505ZM36.6771 38.0623C36.25 38.0623 35.8733 37.9703 35.5471 37.7865C35.2268 37.6026 34.9777 37.3416 34.7997 37.0035C34.6277 36.6595 34.5417 36.262 34.5417 35.8112C34.5417 35.3545 34.6277 34.9571 34.7997 34.619C34.9777 34.2749 35.2268 34.011 35.5471 33.8271C35.8733 33.6432 36.25 33.5513 36.6771 33.5513C37.1041 33.5513 37.4778 33.6432 37.7981 33.8271C38.1244 34.011 38.3735 34.2749 38.5455 34.619C38.7235 34.9571 38.8125 35.3545 38.8125 35.8112C38.8125 36.262 38.7235 36.6595 38.5455 37.0035C38.3735 37.3416 38.1244 37.6026 37.7981 37.7865C37.4778 37.9703 37.1041 38.0623 36.6771 38.0623ZM36.6771 37.3505C37.0745 37.3505 37.377 37.22 37.5846 36.959C37.7981 36.698 37.9049 36.3154 37.9049 35.8112C37.9049 35.313 37.7981 34.9334 37.5846 34.6724C37.3711 34.4054 37.0686 34.272 36.6771 34.272C36.2856 34.272 35.9831 34.4054 35.7695 34.6724C35.556 34.9334 35.4492 35.313 35.4492 35.8112C35.4492 36.3154 35.553 36.698 35.7606 36.959C35.9742 37.22 36.2796 37.3505 36.6771 37.3505ZM41.6374 37.3683C41.7738 37.3683 41.9073 37.3594 42.0378 37.3416L41.9933 38.0267C41.845 38.0504 41.6908 38.0623 41.5306 38.0623C40.9671 38.0623 40.546 37.9259 40.2672 37.653C39.9943 37.3742 39.8579 36.9738 39.8579 36.4518V34.3521H39.0126V33.6581H39.8579V32.3501H40.7565V33.6581H41.9488V34.3521H40.7565V36.4163C40.7565 37.0509 41.0502 37.3683 41.6374 37.3683ZM46.2244 35.9803H43.1547C43.22 36.8997 43.6767 37.3594 44.525 37.3594C45.0232 37.3594 45.474 37.1963 45.8774 36.87L46.1532 37.5017C45.9515 37.6738 45.7024 37.8102 45.4058 37.911C45.1092 38.0119 44.8067 38.0623 44.4983 38.0623C43.8043 38.0623 43.2556 37.8636 42.8522 37.4662C42.4548 37.0687 42.2561 36.5201 42.2561 35.8201C42.2561 35.3753 42.3421 34.9808 42.5141 34.6368C42.6921 34.2927 42.9382 34.0258 43.2526 33.836C43.5729 33.6462 43.9348 33.5513 44.3381 33.5513C44.9253 33.5513 45.385 33.7411 45.7172 34.1207C46.0553 34.5003 46.2244 35.0253 46.2244 35.6956V35.9803ZM44.3559 34.2097C44.0119 34.2097 43.736 34.3194 43.5284 34.5389C43.3268 34.7524 43.2052 35.0609 43.1636 35.4642H45.4503C45.4325 35.0609 45.3287 34.7524 45.1389 34.5389C44.955 34.3194 44.694 34.2097 44.3559 34.2097Z" fill="#1C2121"/>
</svg>
