<svg width="22" height="38" viewBox="0 0 22 38" fill="none" xmlns="http://www.w3.org/2000/svg">
<path opacity="0.7" d="M0.787237 28.7273H4.86226V29.4658H1.68588V31.441H4.68431V32.1884H1.68588V34.2615H4.86226V35H0.787237V28.7273ZM9.64874 30.6669L7.76248 35H6.95281L5.08435 30.6669H6.02748L7.37989 33.9857L8.7501 30.6669H9.64874ZM13.7388 32.9803H10.6692C10.7345 33.8997 11.1912 34.3594 12.0394 34.3594C12.5377 34.3594 12.9885 34.1963 13.3918 33.87L13.6677 34.5017C13.466 34.6738 13.2169 34.8102 12.9203 34.911C12.6237 35.0119 12.3212 35.0623 12.0127 35.0623C11.3187 35.0623 10.7701 34.8636 10.3667 34.4662C9.9693 34.0687 9.77059 33.5201 9.77059 32.8201C9.77059 32.3753 9.8566 31.9808 10.0286 31.6368C10.2066 31.2927 10.4527 31.0258 10.7671 30.836C11.0874 30.6462 11.4492 30.5513 11.8526 30.5513C12.4398 30.5513 12.8995 30.7411 13.2317 31.1207C13.5698 31.5003 13.7388 32.0253 13.7388 32.6956V32.9803ZM11.8704 31.2097C11.5264 31.2097 11.2505 31.3194 11.0429 31.5389C10.8412 31.7524 10.7196 32.0609 10.6781 32.4642H12.9648C12.947 32.0609 12.8432 31.7524 12.6534 31.5389C12.4695 31.3194 12.2085 31.2097 11.8704 31.2097ZM16.8556 30.5513C17.8936 30.5513 18.4126 31.1355 18.4126 32.3041V35H17.514V32.3486C17.514 31.9808 17.4399 31.7109 17.2916 31.5389C17.1492 31.3669 16.9238 31.2809 16.6154 31.2809C16.2535 31.2809 15.9629 31.3936 15.7434 31.619C15.5239 31.8444 15.4142 32.1469 15.4142 32.5265V35H14.5156V30.6581H15.3964V31.3521C15.5388 31.0911 15.7375 30.8924 15.9925 30.7559C16.2476 30.6195 16.5353 30.5513 16.8556 30.5513ZM21.4838 34.3683C21.6202 34.3683 21.7537 34.3594 21.8842 34.3416L21.8397 35.0267C21.6914 35.0504 21.5372 35.0623 21.377 35.0623C20.8135 35.0623 20.3924 34.9259 20.1136 34.653C19.8407 34.3742 19.7043 33.9738 19.7043 33.4518V31.3521H18.859V30.6581H19.7043V29.3501H20.6029V30.6581H21.7952V31.3521H20.6029V33.4163C20.6029 34.0509 20.8966 34.3683 21.4838 34.3683Z" fill="#1C2121"/>
<g opacity="0.7">
<path d="M18.2083 0C19.2139 0 20.1784 0.399478 20.8894 1.11055C21.6005 1.82163 22 2.78605 22 3.79167V17.2083C22 18.2139 21.6005 19.1784 20.8894 19.8894C20.1784 20.6005 19.2139 21 18.2083 21H4.79167C3.78605 21 2.82163 20.6005 2.11055 19.8894C1.39948 19.1784 1 18.2139 1 17.2083V3.79167C1 2.78605 1.39948 1.82163 2.11055 1.11055C2.82163 0.399478 3.78605 0 4.79167 0H18.2083ZM20.25 6.41667H2.75V17.2083C2.75 18.3353 3.66467 19.25 4.79167 19.25H18.2083C18.7498 19.25 19.2691 19.0349 19.652 18.652C20.0349 18.2691 20.25 17.7498 20.25 17.2083V6.41667ZM6.54167 13.4167C6.92844 13.4167 7.29937 13.5703 7.57286 13.8438C7.84635 14.1173 8 14.4882 8 14.875C8 15.2618 7.84635 15.6327 7.57286 15.9062C7.29937 16.1797 6.92844 16.3333 6.54167 16.3333C6.15489 16.3333 5.78396 16.1797 5.51047 15.9062C5.23698 15.6327 5.08333 15.2618 5.08333 14.875C5.08333 14.4882 5.23698 14.1173 5.51047 13.8438C5.78396 13.5703 6.15489 13.4167 6.54167 13.4167ZM11.5 13.4167C11.8868 13.4167 12.2577 13.5703 12.5312 13.8438C12.8047 14.1173 12.9583 14.4882 12.9583 14.875C12.9583 15.2618 12.8047 15.6327 12.5312 15.9062C12.2577 16.1797 11.8868 16.3333 11.5 16.3333C11.1132 16.3333 10.7423 16.1797 10.4688 15.9062C10.1953 15.6327 10.0417 15.2618 10.0417 14.875C10.0417 14.4882 10.1953 14.1173 10.4688 13.8438C10.7423 13.5703 11.1132 13.4167 11.5 13.4167ZM6.54167 8.75C6.92844 8.75 7.29937 8.90365 7.57286 9.17714C7.84635 9.45063 8 9.82156 8 10.2083C8 10.5951 7.84635 10.966 7.57286 11.2395C7.29937 11.513 6.92844 11.6667 6.54167 11.6667C6.15489 11.6667 5.78396 11.513 5.51047 11.2395C5.23698 10.966 5.08333 10.5951 5.08333 10.2083C5.08333 9.82156 5.23698 9.45063 5.51047 9.17714C5.78396 8.90365 6.15489 8.75 6.54167 8.75ZM11.5 8.75C11.8868 8.75 12.2577 8.90365 12.5312 9.17714C12.8047 9.45063 12.9583 9.82156 12.9583 10.2083C12.9583 10.5951 12.8047 10.966 12.5312 11.2395C12.2577 11.513 11.8868 11.6667 11.5 11.6667C11.1132 11.6667 10.7423 11.513 10.4688 11.2395C10.1953 10.966 10.0417 10.5951 10.0417 10.2083C10.0417 9.82156 10.1953 9.45063 10.4688 9.17714C10.7423 8.90365 11.1132 8.75 11.5 8.75ZM16.4583 8.75C16.8451 8.75 17.216 8.90365 17.4895 9.17714C17.763 9.45063 17.9167 9.82156 17.9167 10.2083C17.9167 10.5951 17.763 10.966 17.4895 11.2395C17.216 11.513 16.8451 11.6667 16.4583 11.6667C16.0716 11.6667 15.7006 11.513 15.4271 11.2395C15.1536 10.966 15 10.5951 15 10.2083C15 9.82156 15.1536 9.45063 15.4271 9.17714C15.7006 8.90365 16.0716 8.75 16.4583 8.75ZM18.2083 1.75H4.79167C4.25018 1.75 3.73088 1.9651 3.34799 2.34799C2.9651 2.73088 2.75 3.25018 2.75 3.79167V4.66667H20.25V3.79167C20.25 3.25018 20.0349 2.73088 19.652 2.34799C19.2691 1.9651 18.7498 1.75 18.2083 1.75Z" fill="#1C2121"/>
</g>
</svg>
