<svg width="23" height="39" viewBox="0 0 23 39" fill="none" xmlns="http://www.w3.org/2000/svg">
<g opacity="0.7">
<path d="M4 1.79121C4 1.51273 4.10412 1.24566 4.28945 1.04875C4.47478 0.851836 4.72614 0.741211 4.98824 0.741211H14.8706L19.8118 5.99121V20.6912C19.8118 20.9697 19.7076 21.2368 19.5223 21.4337C19.337 21.6306 19.0856 21.7412 18.8235 21.7412H4.98824C4.72614 21.7412 4.47478 21.6306 4.28945 21.4337C4.10412 21.2368 4 20.9697 4 20.6912V1.79121Z" stroke="#1C2121" stroke-width="1.48235" stroke-linejoin="round"/>
<path d="M7.95288 9.14124H15.8588" stroke="#1C2121" stroke-width="1.48235" stroke-linecap="round" stroke-linejoin="round"/>
<path d="M7.95288 13.3412H15.8588" stroke="#1C2121" stroke-width="1.48235" stroke-linecap="round" stroke-linejoin="round"/>
</g>
<path opacity="0.7" d="M5.93055 29.4685V35.7412H5.22765L1.64199 31.0078V35.7412H0.778937V29.4685H1.47294L5.0675 34.2109V29.4685H5.93055ZM8.95714 35.8035C8.53006 35.8035 8.1534 35.7116 7.82717 35.5277C7.50686 35.3438 7.25773 35.0828 7.07978 34.7447C6.90776 34.4007 6.82176 34.0032 6.82176 33.5524C6.82176 33.0957 6.90776 32.6983 7.07978 32.3602C7.25773 32.0162 7.50686 31.7522 7.82717 31.5683C8.1534 31.3844 8.53006 31.2925 8.95714 31.2925C9.38422 31.2925 9.75791 31.3844 10.0782 31.5683C10.4045 31.7522 10.6536 32.0162 10.8256 32.3602C11.0036 32.6983 11.0925 33.0957 11.0925 33.5524C11.0925 34.0032 11.0036 34.4007 10.8256 34.7447C10.6536 35.0828 10.4045 35.3438 10.0782 35.5277C9.75791 35.7116 9.38422 35.8035 8.95714 35.8035ZM8.95714 35.0917C9.35456 35.0917 9.65707 34.9612 9.86468 34.7002C10.0782 34.4392 10.185 34.0566 10.185 33.5524C10.185 33.0542 10.0782 32.6746 9.86468 32.4136C9.65114 32.1466 9.34863 32.0132 8.95714 32.0132C8.56565 32.0132 8.26314 32.1466 8.0496 32.4136C7.83606 32.6746 7.72929 33.0542 7.72929 33.5524C7.72929 34.0566 7.8331 34.4392 8.0407 34.7002C8.25424 34.9612 8.55972 35.0917 8.95714 35.0917ZM13.9175 35.1095C14.0539 35.1095 14.1873 35.1006 14.3178 35.0828L14.2734 35.7679C14.1251 35.7916 13.9708 35.8035 13.8107 35.8035C13.2472 35.8035 12.826 35.6671 12.5473 35.3942C12.2744 35.1154 12.138 34.715 12.138 34.1931V32.0933H11.2927V31.3993H12.138V30.0913H13.0366V31.3993H14.2289V32.0933H13.0366V34.1575C13.0366 34.7922 13.3302 35.1095 13.9175 35.1095ZM18.5044 33.7215H15.4348C15.5001 34.6409 15.9568 35.1006 16.805 35.1006C17.3033 35.1006 17.7541 34.9375 18.1574 34.6112L18.4333 35.243C18.2316 35.415 17.9825 35.5514 17.6859 35.6522C17.3893 35.7531 17.0868 35.8035 16.7783 35.8035C16.0843 35.8035 15.5357 35.6048 15.1323 35.2074C14.7349 34.8099 14.5362 34.2613 14.5362 33.5613C14.5362 33.1165 14.6222 32.722 14.7942 32.378C14.9722 32.0339 15.2183 31.767 15.5327 31.5772C15.853 31.3874 16.2148 31.2925 16.6182 31.2925C17.2054 31.2925 17.6651 31.4823 17.9973 31.8619C18.3354 32.2416 18.5044 32.7665 18.5044 33.4368V33.7215ZM16.636 31.9509C16.2919 31.9509 16.0161 32.0606 15.8085 32.2801C15.6068 32.4936 15.4852 32.8021 15.4437 33.2054H17.7304C17.7126 32.8021 17.6088 32.4936 17.4189 32.2801C17.2351 32.0606 16.9741 31.9509 16.636 31.9509ZM20.8115 35.8035C20.0582 35.8035 19.4561 35.6196 19.0053 35.2519L19.2812 34.6023C19.726 34.9464 20.245 35.1184 20.8382 35.1184C21.1289 35.1184 21.3513 35.0709 21.5055 34.976C21.6597 34.8752 21.7368 34.7358 21.7368 34.5579C21.7368 34.4036 21.6835 34.282 21.5767 34.1931C21.4759 34.1041 21.2979 34.0299 21.0428 33.9706L20.3222 33.8105C19.9366 33.7215 19.646 33.5762 19.4502 33.3745C19.2545 33.1728 19.1566 32.9178 19.1566 32.6093C19.1566 32.2178 19.3138 31.9005 19.6282 31.6573C19.9485 31.4141 20.3666 31.2925 20.8827 31.2925C21.1911 31.2925 21.4848 31.3429 21.7635 31.4437C22.0423 31.5387 22.2826 31.6751 22.4842 31.853L22.2084 32.4847C21.7813 32.1466 21.3394 31.9776 20.8827 31.9776C20.6098 31.9776 20.3933 32.031 20.2332 32.1377C20.079 32.2445 20.0018 32.3898 20.0018 32.5737C20.0018 32.722 20.0493 32.8436 20.1442 32.9385C20.245 33.0275 20.4022 33.0957 20.6158 33.1432L21.3543 33.3122C21.7754 33.4071 22.0838 33.5554 22.2796 33.7571C22.4753 33.9528 22.5732 34.2109 22.5732 34.5312C22.5732 34.9226 22.4131 35.2341 22.0927 35.4654C21.7784 35.6908 21.3513 35.8035 20.8115 35.8035Z" fill="#1C2121"/>
</svg>
