<svg width="27" height="39" viewBox="0 0 27 39" fill="none" xmlns="http://www.w3.org/2000/svg">
<path opacity="0.7" d="M2.9947 35.8212C2.50831 35.8212 2.06047 35.7559 1.65119 35.6254C1.24784 35.4949 0.900837 35.3022 0.610187 35.0471L0.939392 34.3709C1.24784 34.62 1.56518 34.8009 1.89142 34.9136C2.22359 35.0204 2.59432 35.0738 3.0036 35.0738C3.4722 35.0738 3.83403 34.9878 4.08908 34.8158C4.34414 34.6378 4.47167 34.3887 4.47167 34.0684C4.47167 33.7955 4.35304 33.5939 4.11578 33.4634C3.87851 33.3269 3.49889 33.1994 2.97691 33.0808C2.47865 32.974 2.06937 32.8524 1.74906 32.716C1.42875 32.5795 1.17666 32.3957 0.992777 32.1643C0.814828 31.9271 0.725854 31.6275 0.725854 31.2657C0.725854 30.8979 0.82076 30.5747 1.01057 30.2959C1.20632 30.0171 1.48214 29.8006 1.83803 29.6464C2.19393 29.4862 2.60618 29.4061 3.07478 29.4061C3.51372 29.4061 3.92597 29.4743 4.31152 29.6108C4.70301 29.7413 5.02332 29.9311 5.27244 30.1802L4.95214 30.8564C4.66149 30.6191 4.36194 30.4442 4.0535 30.3315C3.75098 30.2128 3.42771 30.1535 3.08367 30.1535C2.63287 30.1535 2.27697 30.2484 2.01598 30.4382C1.76092 30.6221 1.63339 30.8801 1.63339 31.2123C1.63339 31.497 1.74609 31.7135 1.9715 31.8618C2.1969 32.0042 2.55873 32.1347 3.05698 32.2533C3.57897 32.3719 4.00011 32.4965 4.32042 32.627C4.64666 32.7516 4.90468 32.9265 5.0945 33.1519C5.29024 33.3714 5.38811 33.6591 5.38811 34.015C5.38811 34.3768 5.29024 34.6942 5.0945 34.967C4.90468 35.2399 4.62886 35.4505 4.26703 35.5987C3.91114 35.747 3.48703 35.8212 2.9947 35.8212ZM9.91649 33.7303H6.84687C6.91212 34.6497 7.36886 35.1094 8.21708 35.1094C8.71533 35.1094 9.16614 34.9463 9.56949 34.62L9.84531 35.2517C9.64363 35.4238 9.39451 35.5602 9.09792 35.661C8.80134 35.7619 8.49883 35.8123 8.19039 35.8123C7.49639 35.8123 6.94771 35.6136 6.54436 35.2162C6.14694 34.8187 5.94823 34.2701 5.94823 33.5701C5.94823 33.1253 6.03424 32.7308 6.20626 32.3868C6.38421 32.0427 6.63037 31.7758 6.94474 31.586C7.26505 31.3962 7.62688 31.3013 8.03023 31.3013C8.61746 31.3013 9.07716 31.4911 9.40933 31.8707C9.74744 32.2503 9.91649 32.7753 9.91649 33.4456V33.7303ZM8.04803 31.9597C7.70399 31.9597 7.42817 32.0694 7.22056 32.2889C7.01889 32.5024 6.89729 32.8109 6.85577 33.2142H9.14241C9.12462 32.8109 9.02081 32.5024 8.831 32.2889C8.64712 32.0694 8.38613 31.9597 8.04803 31.9597ZM12.5083 31.3013C13.0896 31.3013 13.5196 31.4466 13.7984 31.7373C14.0831 32.0279 14.2255 32.4698 14.2255 33.063V35.75H13.3624V35.0293C13.2497 35.2844 13.0807 35.4801 12.8553 35.6165C12.6358 35.747 12.3778 35.8123 12.0812 35.8123C11.7965 35.8123 11.5355 35.7559 11.2982 35.6432C11.061 35.5246 10.8741 35.3615 10.7377 35.1539C10.6072 34.9463 10.542 34.7149 10.542 34.4599C10.542 34.1455 10.622 33.8993 10.7822 33.7214C10.9483 33.5375 11.2182 33.407 11.5918 33.3299C11.9715 33.2528 12.4905 33.2142 13.1489 33.2142H13.3535V32.9562C13.3535 32.624 13.2824 32.3838 13.14 32.2355C13.0036 32.0872 12.7782 32.0131 12.4638 32.0131C11.9715 32.0131 11.4791 32.1643 10.9868 32.4668L10.7199 31.8351C10.9512 31.675 11.23 31.5474 11.5563 31.4525C11.8884 31.3517 12.2058 31.3013 12.5083 31.3013ZM12.2414 35.145C12.5676 35.145 12.8345 35.0352 13.0421 34.8158C13.2497 34.5904 13.3535 34.3027 13.3535 33.9527V33.7214H13.1934C12.7307 33.7214 12.3748 33.7421 12.1257 33.7837C11.8766 33.8252 11.6986 33.8964 11.5918 33.9972C11.4851 34.0921 11.4317 34.2315 11.4317 34.4154C11.4317 34.623 11.5058 34.798 11.6541 34.9403C11.8084 35.0768 12.0041 35.145 12.2414 35.145ZM17.8837 32.0576L17.341 32.1109C16.9139 32.1525 16.6055 32.283 16.4156 32.5024C16.2318 32.7219 16.1398 33.0007 16.1398 33.3388V35.75H15.2412V31.4081H16.1131V32.1643C16.3445 31.6542 16.816 31.3725 17.5278 31.3191L17.8214 31.3013L17.8837 32.0576ZM20.1031 35.8123C19.6642 35.8123 19.2816 35.7203 18.9554 35.5365C18.6351 35.3526 18.3859 35.0946 18.208 34.7624C18.036 34.4243 17.95 34.0298 17.95 33.579C17.95 33.1282 18.0389 32.7308 18.2169 32.3868C18.4008 32.0427 18.6558 31.7758 18.9821 31.586C19.3142 31.3962 19.6998 31.3013 20.1387 31.3013C20.4413 31.3013 20.7319 31.3517 21.0107 31.4525C21.2954 31.5534 21.5267 31.6898 21.7047 31.8618L21.4289 32.5024C21.0374 32.1821 20.6311 32.022 20.2099 32.022C19.7947 32.022 19.4685 32.1584 19.2312 32.4313C18.9999 32.6982 18.8842 33.0778 18.8842 33.5701C18.8842 34.0565 18.9999 34.4332 19.2312 34.7001C19.4625 34.9611 19.7888 35.0916 20.2099 35.0916C20.6311 35.0916 21.0374 34.9314 21.4289 34.6111L21.7047 35.2606C21.5149 35.4327 21.2776 35.5691 20.9929 35.6699C20.7082 35.7648 20.4116 35.8123 20.1031 35.8123ZM24.6266 31.3013C25.6646 31.3013 26.1836 31.8855 26.1836 33.0541V35.75H25.285V33.0986C25.285 32.7308 25.2109 32.4609 25.0626 32.2889C24.9202 32.1169 24.6948 32.0309 24.3864 32.0309C24.0245 32.0309 23.7339 32.1436 23.5144 32.369C23.2949 32.5944 23.1852 32.8969 23.1852 33.2765V35.75H22.2866V29.4773H23.1852V32.0665C23.3335 31.8173 23.5322 31.6275 23.7813 31.497C24.0305 31.3665 24.3122 31.3013 24.6266 31.3013Z" fill="#1C2121"/>
<g opacity="0.7">
<path d="M24 21.75L19.0418 16.7829L24 21.75ZM21.7895 10.1447C21.7895 12.6364 20.7997 15.026 19.0378 16.7878C17.276 18.5497 14.8864 19.5395 12.3947 19.5395C9.9031 19.5395 7.51351 18.5497 5.75165 16.7878C3.9898 15.026 3 12.6364 3 10.1447C3 7.6531 3.9898 5.26351 5.75165 3.50165C7.51351 1.7398 9.9031 0.75 12.3947 0.75C14.8864 0.75 17.276 1.7398 19.0378 3.50165C20.7997 5.26351 21.7895 7.6531 21.7895 10.1447V10.1447Z" stroke="#1C2121" stroke-width="1.5" stroke-linecap="round"/>
</g>
</svg>
